<?xml version="1.0" encoding="UTF-8"?>
<!DOCTYPE svg PUBLIC "-//W3C//DTD SVG 1.1//EN" "http://www.w3.org/Graphics/SVG/1.1/DTD/svg11.dtd">
<svg xmlns="http://www.w3.org/2000/svg" version="1.1" width="1280px" height="640px" style="shape-rendering:geometricPrecision; text-rendering:geometricPrecision; image-rendering:optimizeQuality; fill-rule:evenodd; clip-rule:evenodd" xmlns:xlink="http://www.w3.org/1999/xlink">
<g><path style="opacity:1" fill="#fefefe" d="M -0.5,-0.5 C 426.167,-0.5 852.833,-0.5 1279.5,-0.5C 1279.5,212.833 1279.5,426.167 1279.5,639.5C 852.833,639.5 426.167,639.5 -0.5,639.5C -0.5,426.167 -0.5,212.833 -0.5,-0.5 Z"/></g>
<g><path style="opacity:1" fill="#282725" d="M 725.5,113.5 C 725.5,114.833 725.5,116.167 725.5,117.5C 719.167,117.5 712.833,117.5 706.5,117.5C 706.5,116.167 706.5,114.833 706.5,113.5C 708.292,113.634 709.958,113.301 711.5,112.5C 712.494,103.014 712.827,93.3478 712.5,83.5C 710.5,83.5 708.5,83.5 706.5,83.5C 706.5,81.8333 706.5,80.1667 706.5,78.5C 708.5,78.5 710.5,78.5 712.5,78.5C 710.048,64.7076 715.714,58.7076 729.5,60.5C 729.5,62.5 729.5,64.5 729.5,66.5C 726.552,66.2229 723.719,66.5562 721,67.5C 719.663,71.0257 719.163,74.6924 719.5,78.5C 722.167,78.5 724.833,78.5 727.5,78.5C 727.5,80.1667 727.5,81.8333 727.5,83.5C 724.833,83.5 722.167,83.5 719.5,83.5C 719.334,93.1724 719.5,102.839 720,112.5C 721.699,113.406 723.533,113.739 725.5,113.5 Z"/></g>
<g><path style="opacity:1" fill="#2c2c29" d="M 410.5,82.5 C 411.574,81.1154 412.907,79.9487 414.5,79C 422.032,76.856 428.199,78.6894 433,84.5C 434.021,93.8043 434.854,103.138 435.5,112.5C 436.736,113.246 438.07,113.579 439.5,113.5C 439.5,114.833 439.5,116.167 439.5,117.5C 433.5,117.5 427.5,117.5 421.5,117.5C 421.5,116.167 421.5,114.833 421.5,113.5C 422.93,113.579 424.264,113.246 425.5,112.5C 426.665,104.521 426.832,96.5208 426,88.5C 422.762,83.2123 418.262,82.0456 412.5,85C 411.667,85.8333 410.833,86.6667 410,87.5C 409.333,95.8333 409.333,104.167 410,112.5C 411.356,113.38 412.856,113.714 414.5,113.5C 414.5,114.833 414.5,116.167 414.5,117.5C 408.5,117.5 402.5,117.5 396.5,117.5C 396.5,116.167 396.5,114.833 396.5,113.5C 398.117,112.962 399.784,112.629 401.5,112.5C 401.5,97.1667 401.5,81.8333 401.5,66.5C 399.585,66.7845 397.919,66.4511 396.5,65.5C 396.5,64.1667 396.5,62.8333 396.5,61.5C 400.5,61.5 404.5,61.5 408.5,61.5C 408.169,68.8635 408.503,76.1968 409.5,83.5C 410.107,83.3764 410.44,83.0431 410.5,82.5 Z"/></g>
<g><path style="opacity:1" fill="#7d7d7c" d="M 410.5,82.5 C 410.44,83.0431 410.107,83.3764 409.5,83.5C 408.503,76.1968 408.169,68.8635 408.5,61.5C 404.5,61.5 400.5,61.5 396.5,61.5C 396.5,62.8333 396.5,64.1667 396.5,65.5C 395.549,64.0813 395.216,62.4147 395.5,60.5C 400.167,60.5 404.833,60.5 409.5,60.5C 409.175,68.0191 409.508,75.3524 410.5,82.5 Z"/></g>
<g><path style="opacity:1" fill="#22211f" d="M 791.5,112.5 C 793.042,113.301 794.708,113.634 796.5,113.5C 796.5,114.833 796.5,116.167 796.5,117.5C 790.5,117.5 784.5,117.5 778.5,117.5C 778.5,116.167 778.5,114.833 778.5,113.5C 780.5,113.167 782.5,112.833 784.5,112.5C 784.5,97.1667 784.5,81.8333 784.5,66.5C 782.265,66.7947 780.265,66.4614 778.5,65.5C 778.5,64.1667 778.5,62.8333 778.5,61.5C 782.5,61.5 786.5,61.5 790.5,61.5C 790.17,78.6749 790.503,95.6749 791.5,112.5 Z"/></g>
<g><path style="opacity:1" fill="#555452" d="M 791.5,112.5 C 790.503,95.6749 790.17,78.6749 790.5,61.5C 786.5,61.5 782.5,61.5 778.5,61.5C 778.5,62.8333 778.5,64.1667 778.5,65.5C 777.549,64.0813 777.216,62.4147 777.5,60.5C 782.167,60.5 786.833,60.5 791.5,60.5C 791.5,77.8333 791.5,95.1667 791.5,112.5 Z"/></g>
<g><path style="opacity:1" fill="#696867" d="M 389.5,77.5 C 389.5,73.5 389.5,69.5 389.5,65.5C 375.167,65.5 360.833,65.5 346.5,65.5C 346.5,69.5 346.5,73.5 346.5,77.5C 345.515,73.3656 345.182,69.0323 345.5,64.5C 360.5,64.5 375.5,64.5 390.5,64.5C 390.818,69.0323 390.485,73.3656 389.5,77.5 Z"/></g>
<g><path style="opacity:1" fill="#757473" d="M 483.5,65.5 C 496.99,64.5043 510.656,64.171 524.5,64.5C 524.818,69.0323 524.485,73.3656 523.5,77.5C 523.5,73.5 523.5,69.5 523.5,65.5C 510.167,65.5 496.833,65.5 483.5,65.5 Z"/></g>
<g><path style="opacity:1" fill="#6e6d6c" d="M 827.5,65.5 C 819.5,65.5 811.5,65.5 803.5,65.5C 803.5,66.8333 803.5,68.1667 803.5,69.5C 802.549,68.0813 802.216,66.4147 802.5,64.5C 811.017,64.1739 819.35,64.5073 827.5,65.5 Z"/></g>
<g><path style="opacity:1" fill="#272624" d="M 389.5,77.5 C 387.833,77.5 386.167,77.5 384.5,77.5C 384.5,75.1667 384.5,72.8333 384.5,70.5C 380.167,70.5 375.833,70.5 371.5,70.5C 371.333,84.504 371.5,98.504 372,112.5C 373.699,113.406 375.533,113.739 377.5,113.5C 377.5,115.167 377.5,116.833 377.5,118.5C 371.167,118.5 364.833,118.5 358.5,118.5C 357.832,113.839 359.832,111.839 364.5,112.5C 364.5,98.5 364.5,84.5 364.5,70.5C 360.167,70.5 355.833,70.5 351.5,70.5C 351.5,72.8333 351.5,75.1667 351.5,77.5C 349.833,77.5 348.167,77.5 346.5,77.5C 346.5,73.5 346.5,69.5 346.5,65.5C 360.833,65.5 375.167,65.5 389.5,65.5C 389.5,69.5 389.5,73.5 389.5,77.5 Z"/></g>
<g><path style="opacity:1" fill="#262523" d="M 483.5,65.5 C 496.833,65.5 510.167,65.5 523.5,65.5C 523.5,69.5 523.5,73.5 523.5,77.5C 518.505,77.8752 516.505,75.5418 517.5,70.5C 510.5,70.5 503.5,70.5 496.5,70.5C 496.5,76.5 496.5,82.5 496.5,88.5C 502.645,89.4902 508.978,89.8235 515.5,89.5C 515.5,91.1667 515.5,92.8333 515.5,94.5C 509.167,94.5 502.833,94.5 496.5,94.5C 496.177,100.69 496.51,106.69 497.5,112.5C 499.042,113.301 500.708,113.634 502.5,113.5C 502.5,115.167 502.5,116.833 502.5,118.5C 496.167,118.5 489.833,118.5 483.5,118.5C 483.5,116.833 483.5,115.167 483.5,113.5C 485.5,113.167 487.5,112.833 489.5,112.5C 489.5,98.5 489.5,84.5 489.5,70.5C 487.5,70.1667 485.5,69.8333 483.5,69.5C 483.5,68.1667 483.5,66.8333 483.5,65.5 Z"/></g>
<g><path style="opacity:1" fill="#282725" d="M 827.5,65.5 C 840.548,68.5442 847.215,76.8775 847.5,90.5C 847.208,100.221 843.541,108.388 836.5,115C 833.688,116.549 830.688,117.382 827.5,117.5C 819.5,117.5 811.5,117.5 803.5,117.5C 803.5,116.167 803.5,114.833 803.5,113.5C 804.919,112.549 806.585,112.216 808.5,112.5C 808.5,98.5 808.5,84.5 808.5,70.5C 806.585,70.7845 804.919,70.4511 803.5,69.5C 803.5,68.1667 803.5,66.8333 803.5,65.5C 811.5,65.5 819.5,65.5 827.5,65.5 Z"/></g>
<g><path style="opacity:1" fill="#2a2927" d="M 691.5,78.5 C 694.167,78.5 696.833,78.5 699.5,78.5C 699.5,80.1667 699.5,81.8333 699.5,83.5C 696.833,83.5 694.167,83.5 691.5,83.5C 691.334,92.8393 691.5,102.173 692,111.5C 694.574,113.002 697.407,114.002 700.5,114.5C 701.711,115.72 701.711,116.887 700.5,118C 696.5,118.667 692.5,118.667 688.5,118C 686.19,116.363 684.69,114.196 684,111.5C 683.5,102.173 683.334,92.8393 683.5,83.5C 681.5,83.5 679.5,83.5 677.5,83.5C 677.5,81.8333 677.5,80.1667 677.5,78.5C 679.5,78.5 681.5,78.5 683.5,78.5C 684.477,75.7131 684.81,72.7131 684.5,69.5C 686.5,69.5 688.5,69.5 690.5,69.5C 690.19,72.7131 690.523,75.7131 691.5,78.5 Z"/></g>
<g><path style="opacity:1" fill="#6f6f6d" d="M 691.5,78.5 C 690.523,75.7131 690.19,72.7131 690.5,69.5C 688.5,69.5 686.5,69.5 684.5,69.5C 684.81,72.7131 684.477,75.7131 683.5,78.5C 683.5,75.1667 683.5,71.8333 683.5,68.5C 686.167,68.5 688.833,68.5 691.5,68.5C 691.5,71.8333 691.5,75.1667 691.5,78.5 Z"/></g>
<g><path style="opacity:1" fill="#f8f8f8" d="M 815.5,70.5 C 831.372,68.2546 839.372,75.0879 839.5,91C 839.87,107.462 831.87,114.629 815.5,112.5C 815.5,98.5 815.5,84.5 815.5,70.5 Z"/></g>
<g><path style="opacity:1" fill="#898988" d="M 586.5,78.5 C 588.948,77.5269 591.615,77.1936 594.5,77.5C 594.784,79.4147 594.451,81.0813 593.5,82.5C 593.5,81.1667 593.5,79.8333 593.5,78.5C 591.167,78.5 588.833,78.5 586.5,78.5 Z"/></g>
<g><path style="opacity:1" fill="#282725" d="M 477.5,99.5 C 468.833,99.5 460.167,99.5 451.5,99.5C 451.216,101.415 451.549,103.081 452.5,104.5C 454.508,111.669 459.174,114.503 466.5,113C 468.722,112.305 470.889,111.472 473,110.5C 474.833,111 476,112.167 476.5,114C 474.287,116.081 471.62,117.415 468.5,118C 453.18,120.513 445.18,114.013 444.5,98.5C 444.336,84.8319 451.003,77.9985 464.5,78C 475.024,81.187 479.357,88.3536 477.5,99.5 Z"/></g>
<g><path style="opacity:1" fill="#272624" d="M 561.5,91.5 C 561.608,96.8699 561.275,102.203 560.5,107.5C 555.953,117.436 548.286,120.936 537.5,118C 529.283,113.739 525.616,106.905 526.5,97.5C 527.575,81.6226 535.908,75.4559 551.5,79C 556.566,81.8871 559.899,86.0537 561.5,91.5 Z"/></g>
<g><path style="opacity:1" fill="#252422" d="M 586.5,78.5 C 588.833,78.5 591.167,78.5 593.5,78.5C 593.5,79.8333 593.5,81.1667 593.5,82.5C 590.992,84.2371 587.992,85.0704 584.5,85C 582.951,86.214 581.785,87.714 581,89.5C 580.333,97.1667 580.333,104.833 581,112.5C 582.356,113.38 583.856,113.714 585.5,113.5C 585.5,114.833 585.5,116.167 585.5,117.5C 579.5,117.5 573.5,117.5 567.5,117.5C 567.44,113.515 569.44,111.848 573.5,112.5C 573.666,103.161 573.5,93.8274 573,84.5C 571.301,83.5939 569.467,83.2606 567.5,83.5C 567.5,81.8333 567.5,80.1667 567.5,78.5C 571.833,78.5 576.167,78.5 580.5,78.5C 580.34,80.1992 580.506,81.8659 581,83.5C 582.704,81.6266 584.537,79.9599 586.5,78.5 Z"/></g>
<g><path style="opacity:1" fill="#282725" d="M 607.5,78.5 C 611.846,78.3343 616.179,78.501 620.5,79C 622.333,80.1667 623.833,81.6667 625,83.5C 625.494,81.8659 625.66,80.1992 625.5,78.5C 629.167,78.5 632.833,78.5 636.5,78.5C 636.5,80.1667 636.5,81.8333 636.5,83.5C 634.856,83.2865 633.356,83.6198 632,84.5C 631.667,97.8333 631.333,111.167 631,124.5C 628.807,130.188 624.64,133.355 618.5,134C 612.959,134.756 607.959,133.589 603.5,130.5C 604.026,128.77 605.026,127.436 606.5,126.5C 612.573,129.72 618.073,129.053 623,124.5C 624.632,121.577 624.799,118.577 623.5,115.5C 616.352,119.832 609.519,119.499 603,114.5C 597.43,104.701 597.097,94.7008 602,84.5C 603.699,82.3039 605.533,80.3039 607.5,78.5 Z"/></g>
<g><path style="opacity:1" fill="#272624" d="M 673.5,99.5 C 664.833,99.5 656.167,99.5 647.5,99.5C 647.232,101.099 647.566,102.432 648.5,103.5C 649.851,111.354 654.518,114.52 662.5,113C 664.588,111.97 666.755,111.137 669,110.5C 672.677,111.653 673.177,113.486 670.5,116C 652.376,123.175 642.376,117.175 640.5,98C 640.508,87.9597 645.175,81.293 654.5,78C 668.686,78.0272 675.02,85.1939 673.5,99.5 Z"/></g>
<g><path style="opacity:1" fill="#272624" d="M 885.5,99.5 C 876.833,99.5 868.167,99.5 859.5,99.5C 859.216,101.415 859.549,103.081 860.5,104.5C 862.428,111.638 867.095,114.471 874.5,113C 876.588,111.97 878.755,111.137 881,110.5C 882.714,111.076 883.881,112.243 884.5,114C 878.119,118.216 871.119,119.549 863.5,118C 858.158,114.985 854.658,110.485 853,104.5C 850.751,93.8542 853.918,85.3542 862.5,79C 878.696,76.0213 886.362,82.8546 885.5,99.5 Z"/></g>
<g><path style="opacity:1" fill="#262523" d="M 761.5,107.5 C 762.166,103.681 762.499,99.6812 762.5,95.5C 762.491,91.107 761.824,87.107 760.5,83.5C 759.167,83.5 757.833,83.5 756.5,83.5C 756.5,81.8333 756.5,80.1667 756.5,78.5C 760.5,78.5 764.5,78.5 768.5,78.5C 768.168,89.8529 768.501,101.186 769.5,112.5C 770.417,113.127 771.417,113.461 772.5,113.5C 772.5,114.833 772.5,116.167 772.5,117.5C 769.167,117.5 765.833,117.5 762.5,117.5C 762.785,115.712 762.452,114.045 761.5,112.5C 757.187,118.088 751.52,119.921 744.5,118C 740.698,115.913 738.198,112.746 737,108.5C 736.5,100.173 736.334,91.84 736.5,83.5C 735.167,83.5 733.833,83.5 732.5,83.5C 732.5,81.8333 732.5,80.1667 732.5,78.5C 736.167,78.5 739.833,78.5 743.5,78.5C 743.101,88.8983 743.601,99.2317 745,109.5C 748.25,112.353 752.083,113.186 756.5,112C 758.66,111.004 760.327,109.504 761.5,107.5 Z"/></g>
<g><path style="opacity:1" fill="#292826" d="M 888.5,78.5 C 894.167,78.5 899.833,78.5 905.5,78.5C 905.5,80.1667 905.5,81.8333 905.5,83.5C 903.833,83.5 902.167,83.5 900.5,83.5C 903.403,92.2974 906.569,100.964 910,109.5C 912.856,101.105 916.023,92.7722 919.5,84.5C 917.955,83.5481 916.288,83.2148 914.5,83.5C 914.5,81.8333 914.5,80.1667 914.5,78.5C 919.833,78.5 925.167,78.5 930.5,78.5C 930.5,80.1667 930.5,81.8333 930.5,83.5C 928.856,83.2865 927.356,83.6198 926,84.5C 921.525,95.7405 917.359,107.074 913.5,118.5C 911.167,118.5 908.833,118.5 906.5,118.5C 902.695,106.924 898.195,95.5911 893,84.5C 891.644,83.6198 890.144,83.2865 888.5,83.5C 888.5,81.8333 888.5,80.1667 888.5,78.5 Z"/></g>
<g><path style="opacity:1" fill="#f7f6f6" d="M 458.5,83.5 C 466.35,83.0175 470.35,86.6842 470.5,94.5C 464.5,94.5 458.5,94.5 452.5,94.5C 452.702,89.7572 454.702,86.0905 458.5,83.5 Z"/></g>
<g><path style="opacity:1" fill="#f7f7f7" d="M 540.5,83.5 C 547.231,82.4476 551.731,85.1142 554,91.5C 554.984,97.6928 554.318,103.693 552,109.5C 543.186,116.233 537.186,114.233 534,103.5C 531.916,95.2534 534.083,88.5867 540.5,83.5 Z"/></g>
<g><path style="opacity:1" fill="#f9f9f9" d="M 612.5,83.5 C 617.509,82.7707 621.342,84.4374 624,88.5C 624.667,95.1667 624.667,101.833 624,108.5C 623.167,110 622,111.167 620.5,112C 613.459,114.35 608.626,112.183 606,105.5C 603.616,96.5581 605.783,89.2248 612.5,83.5 Z"/></g>
<g><path style="opacity:1" fill="#f7f7f7" d="M 654.5,83.5 C 662.39,83.06 666.39,86.7266 666.5,94.5C 660.5,94.5 654.5,94.5 648.5,94.5C 648.677,89.8106 650.677,86.144 654.5,83.5 Z"/></g>
<g><path style="opacity:1" fill="#989796" d="M 706.5,78.5 C 706.5,80.1667 706.5,81.8333 706.5,83.5C 708.5,83.5 710.5,83.5 712.5,83.5C 712.827,93.3478 712.494,103.014 711.5,112.5C 711.5,103.167 711.5,93.8333 711.5,84.5C 709.5,84.5 707.5,84.5 705.5,84.5C 705.205,82.2646 705.539,80.2646 706.5,78.5 Z"/></g>
<g><path style="opacity:1" fill="#5f5e5c" d="M 760.5,83.5 C 761.824,87.107 762.491,91.107 762.5,95.5C 762.499,99.6812 762.166,103.681 761.5,107.5C 761.801,99.4144 761.467,91.4144 760.5,83.5 Z"/></g>
<g><path style="opacity:1" fill="#f6f6f6" d="M 866.5,83.5 C 874.35,83.0175 878.35,86.6842 878.5,94.5C 872.5,94.5 866.5,94.5 860.5,94.5C 860.171,89.4866 862.171,85.82 866.5,83.5 Z"/></g>
<g><path style="opacity:1" fill="#868685" d="M 496.5,88.5 C 503.167,88.5 509.833,88.5 516.5,88.5C 516.5,90.5 516.5,92.5 516.5,94.5C 516.167,94.5 515.833,94.5 515.5,94.5C 515.5,92.8333 515.5,91.1667 515.5,89.5C 508.978,89.8235 502.645,89.4902 496.5,88.5 Z"/></g>
<g><path style="opacity:1" fill="#cccccc" d="M 515.5,94.5 C 515.833,94.5 516.167,94.5 516.5,94.5C 510.355,95.4902 504.022,95.8235 497.5,95.5C 497.5,101.167 497.5,106.833 497.5,112.5C 496.51,106.69 496.177,100.69 496.5,94.5C 502.833,94.5 509.167,94.5 515.5,94.5 Z"/></g>
<g><path style="opacity:1" fill="#8a8a88" d="M 477.5,99.5 C 469.35,100.493 461.017,100.826 452.5,100.5C 452.5,101.833 452.5,103.167 452.5,104.5C 451.549,103.081 451.216,101.415 451.5,99.5C 460.167,99.5 468.833,99.5 477.5,99.5 Z"/></g>
<g><path style="opacity:1" fill="#8e8d8c" d="M 673.5,99.5 C 665.35,100.493 657.017,100.826 648.5,100.5C 648.5,101.5 648.5,102.5 648.5,103.5C 647.566,102.432 647.232,101.099 647.5,99.5C 656.167,99.5 664.833,99.5 673.5,99.5 Z"/></g>
<g><path style="opacity:1" fill="#908f8e" d="M 885.5,99.5 C 877.35,100.493 869.017,100.826 860.5,100.5C 860.5,101.833 860.5,103.167 860.5,104.5C 859.549,103.081 859.216,101.415 859.5,99.5C 868.167,99.5 876.833,99.5 885.5,99.5 Z"/></g>
<g><path style="opacity:1" fill="#b9b8b7" d="M 561.5,91.5 C 562.648,95.9811 562.815,100.648 562,105.5C 561.722,106.416 561.222,107.082 560.5,107.5C 561.275,102.203 561.608,96.8699 561.5,91.5 Z"/></g>
<g><path style="opacity:1" fill="#727170" d="M 396.5,113.5 C 396.5,114.833 396.5,116.167 396.5,117.5C 402.5,117.5 408.5,117.5 414.5,117.5C 414.5,116.167 414.5,114.833 414.5,113.5C 415.451,114.919 415.784,116.585 415.5,118.5C 408.833,118.5 402.167,118.5 395.5,118.5C 395.216,116.585 395.549,114.919 396.5,113.5 Z"/></g>
<g><path style="opacity:1" fill="#727271" d="M 421.5,113.5 C 421.5,114.833 421.5,116.167 421.5,117.5C 427.5,117.5 433.5,117.5 439.5,117.5C 439.5,116.167 439.5,114.833 439.5,113.5C 440.451,114.919 440.784,116.585 440.5,118.5C 433.833,118.5 427.167,118.5 420.5,118.5C 420.216,116.585 420.549,114.919 421.5,113.5 Z"/></g>
<g><path style="opacity:1" fill="#686766" d="M 585.5,113.5 C 586.451,114.919 586.784,116.585 586.5,118.5C 579.978,118.823 573.645,118.49 567.5,117.5C 573.5,117.5 579.5,117.5 585.5,117.5C 585.5,116.167 585.5,114.833 585.5,113.5 Z"/></g>
<g><path style="opacity:1" fill="#787776" d="M 706.5,113.5 C 706.5,114.833 706.5,116.167 706.5,117.5C 712.833,117.5 719.167,117.5 725.5,117.5C 725.5,116.167 725.5,114.833 725.5,113.5C 726.451,114.919 726.784,116.585 726.5,118.5C 719.5,118.5 712.5,118.5 705.5,118.5C 705.216,116.585 705.549,114.919 706.5,113.5 Z"/></g>
<g><path style="opacity:1" fill="#6d6c6b" d="M 772.5,113.5 C 773.451,114.919 773.784,116.585 773.5,118.5C 769.629,118.815 765.962,118.482 762.5,117.5C 765.833,117.5 769.167,117.5 772.5,117.5C 772.5,116.167 772.5,114.833 772.5,113.5 Z"/></g>
<g><path style="opacity:1" fill="#757473" d="M 778.5,113.5 C 778.5,114.833 778.5,116.167 778.5,117.5C 784.5,117.5 790.5,117.5 796.5,117.5C 796.5,116.167 796.5,114.833 796.5,113.5C 797.451,114.919 797.784,116.585 797.5,118.5C 790.833,118.5 784.167,118.5 777.5,118.5C 777.216,116.585 777.549,114.919 778.5,113.5 Z"/></g>
<g><path style="opacity:1" fill="#6e6d6c" d="M 803.5,113.5 C 803.5,114.833 803.5,116.167 803.5,117.5C 811.5,117.5 819.5,117.5 827.5,117.5C 819.35,118.493 811.017,118.826 802.5,118.5C 802.216,116.585 802.549,114.919 803.5,113.5 Z"/></g>
<g><path style="opacity:1" fill="#0e0b0b" d="M 699.5,169.5 C 697.374,170.796 694.207,171.463 690,171.5C 687.833,171.333 685.667,171.167 683.5,171C 686.028,170.002 686.028,169.169 683.5,168.5C 683.001,169.75 681.668,170.917 679.5,172C 675.867,172.149 672.534,172.982 669.5,174.5C 665.833,174.5 662.167,174.5 658.5,174.5C 655.645,172.75 652.311,171.917 648.5,172C 655.5,171.667 662.5,171.333 669.5,171C 663.319,170.828 657.319,170.328 651.5,169.5C 659.196,169.646 666.862,169.313 674.5,168.5C 674.739,162.435 674.239,156.435 673,150.5C 671.89,148.963 670.39,148.297 668.5,148.5C 668.5,147.5 668.5,146.5 668.5,145.5C 667.5,145.5 666.5,145.5 665.5,145.5C 662.5,145.5 659.5,145.5 656.5,145.5C 651.351,146.978 648.351,150.312 647.5,155.5C 647.5,155.833 647.5,156.167 647.5,156.5C 646.542,156.953 645.708,157.619 645,158.5C 644.502,161.817 644.335,165.15 644.5,168.5C 645.791,168.263 646.791,168.596 647.5,169.5C 636.418,171.801 625.085,174.135 613.5,176.5C 613.649,175.448 613.483,174.448 613,173.5C 611.644,174.38 610.144,174.714 608.5,174.5C 614.346,170.281 621.013,168.114 628.5,168C 626.395,165.979 624.395,163.979 622.5,162C 623.638,159.955 625.305,159.288 627.5,160C 630.286,162.06 633.286,163.56 636.5,164.5C 640.6,141.452 653.6,133.952 675.5,142C 677.09,143.046 678.59,144.213 680,145.5C 681.673,151.714 682.84,158.047 683.5,164.5C 687.456,162.212 690.789,159.212 693.5,155.5C 699.084,153.66 700.917,155.66 699,161.5C 697.265,163.611 695.432,165.611 693.5,167.5C 695.631,168.169 697.631,168.835 699.5,169.5 Z"/></g>
<g><path style="opacity:1" fill="#ee322b" d="M 656.5,145.5 C 659.5,145.5 662.5,145.5 665.5,145.5C 665.281,146.675 665.614,147.675 666.5,148.5C 668.302,149.986 670.302,150.986 672.5,151.5C 672.5,156.833 672.5,162.167 672.5,167.5C 663.833,167.5 655.167,167.5 646.5,167.5C 646.552,163.802 646.886,160.135 647.5,156.5C 647.5,156.167 647.5,155.833 647.5,155.5C 650.864,152.471 653.864,149.137 656.5,145.5 Z"/></g>
<g><path style="opacity:1" fill="#ae3834" d="M 656.5,145.5 C 653.864,149.137 650.864,152.471 647.5,155.5C 648.351,150.312 651.351,146.978 656.5,145.5 Z"/></g>
<g><path style="opacity:1" fill="#c43d3a" d="M 665.5,145.5 C 666.5,145.5 667.5,145.5 668.5,145.5C 668.5,146.5 668.5,147.5 668.5,148.5C 670.39,148.297 671.89,148.963 673,150.5C 674.239,156.435 674.739,162.435 674.5,168.5C 666.862,169.313 659.196,169.646 651.5,169.5C 650.167,169.5 648.833,169.5 647.5,169.5C 646.791,168.596 645.791,168.263 644.5,168.5C 644.335,165.15 644.502,161.817 645,158.5C 645.708,157.619 646.542,156.953 647.5,156.5C 646.886,160.135 646.552,163.802 646.5,167.5C 655.167,167.5 663.833,167.5 672.5,167.5C 672.5,162.167 672.5,156.833 672.5,151.5C 670.302,150.986 668.302,149.986 666.5,148.5C 665.614,147.675 665.281,146.675 665.5,145.5 Z"/></g>
<g><path style="opacity:1" fill="#0d2242" d="M 658.5,174.5 C 662.167,174.5 665.833,174.5 669.5,174.5C 673.833,174.5 678.167,174.5 682.5,174.5C 675.854,175.54 669.02,176.207 662,176.5C 648.155,175.223 634.322,175.223 620.5,176.5C 621.609,175.71 622.942,175.21 624.5,175C 635.828,174.5 647.162,174.333 658.5,174.5 Z"/></g>
<g><path style="opacity:1" fill="#026bb6" d="M 817.5,334.5 C 817.5,354.833 817.5,375.167 817.5,395.5C 809.631,451.079 782.965,495.246 737.5,528C 723.641,536.712 708.641,542.212 692.5,544.5C 684.716,544.925 677.05,544.258 669.5,542.5C 669.167,541.5 668.5,540.833 667.5,540.5C 666.331,544.654 666.331,548.821 667.5,553C 667,555.5 666.5,558 666,560.5C 664.984,559.366 664.317,559.699 664,561.5C 663.581,560.328 662.915,559.328 662,558.5C 661.667,552.833 661.333,547.167 661,541.5C 658.045,541.678 654.879,541.678 651.5,541.5C 651.5,542.5 651.5,543.5 651.5,544.5C 648.5,544.5 645.5,544.5 642.5,544.5C 635.687,543.509 628.687,543.175 621.5,543.5C 616.034,542.276 610.367,541.443 604.5,541C 603.584,540.722 602.918,540.222 602.5,539.5C 602.5,538.5 602.5,537.5 602.5,536.5C 599.813,536.664 597.146,536.497 594.5,536C 591.609,534.208 588.609,532.708 585.5,531.5C 585.657,530.127 585.49,528.793 585,527.5C 582.936,528.591 580.769,528.758 578.5,528C 578.833,527.667 579.167,527.333 579.5,527C 572.028,523.764 564.695,520.264 557.5,516.5C 546.789,505.386 537.289,493.386 529,480.5C 519.162,459.434 511.329,437.768 505.5,415.5C 503.465,383.05 504.632,350.717 509,318.5C 510.858,315.428 512.024,312.095 512.5,308.5C 513.497,308.53 514.164,308.03 514.5,307C 516.172,300.49 517.839,293.99 519.5,287.5C 525.895,273.832 532.395,260.165 539,246.5C 543.202,239.278 547.869,232.278 553,225.5C 563.416,214.754 574.249,204.254 585.5,194C 596.328,186.716 607.995,180.883 620.5,176.5C 634.322,175.223 648.155,175.223 662,176.5C 669.02,176.207 675.854,175.54 682.5,174.5C 685.743,173.42 689.076,173.253 692.5,174C 707.76,178.866 722.76,184.533 737.5,191C 738.5,192 739.5,193 740.5,194C 744.393,194.946 748.059,196.446 751.5,198.5C 758.582,205.152 765.416,212.152 772,219.5C 779.624,233.006 787.624,246.339 796,259.5C 805.871,283.663 813.037,308.663 817.5,334.5 Z"/></g>
<g><path style="opacity:1" fill="#090911" d="M 647.5,169.5 C 648.833,169.5 650.167,169.5 651.5,169.5C 657.319,170.328 663.319,170.828 669.5,171C 662.5,171.333 655.5,171.667 648.5,172C 652.311,171.917 655.645,172.75 658.5,174.5C 647.162,174.333 635.828,174.5 624.5,175C 622.942,175.21 621.609,175.71 620.5,176.5C 607.995,180.883 596.328,186.716 585.5,194C 574.249,204.254 563.416,214.754 553,225.5C 547.869,232.278 543.202,239.278 539,246.5C 532.395,260.165 525.895,273.832 519.5,287.5C 518.833,287.833 518.167,288.167 517.5,288.5C 516.924,285.152 515.924,282.485 514.5,280.5C 524.494,255.515 538.328,232.849 556,212.5C 570.818,196.019 588.318,183.352 608.5,174.5C 610.144,174.714 611.644,174.38 613,173.5C 613.483,174.448 613.649,175.448 613.5,176.5C 625.085,174.135 636.418,171.801 647.5,169.5 Z"/></g>
<g><path style="opacity:1" fill="#04050d" d="M 647.5,211.5 C 652.888,213.066 656.055,216.733 657,222.5C 658.182,230.153 657.182,237.487 654,244.5C 647.118,248.931 640.785,248.265 635,242.5C 634.74,240.382 633.74,238.716 632,237.5C 630.655,229.51 632.322,222.176 637,215.5C 640.284,213.384 643.784,212.051 647.5,211.5 Z"/></g>
<g><path style="opacity:1" fill="#030307" d="M 682.5,215.5 C 686.059,216.425 689.393,217.758 692.5,219.5C 692.666,225.509 692.499,231.509 692,237.5C 688.747,246.118 682.58,248.951 673.5,246C 671.014,245.344 669.347,243.844 668.5,241.5C 668.099,233.415 668.599,225.415 670,217.5C 673.754,214.45 677.92,213.784 682.5,215.5 Z"/></g>
<g><path style="opacity:1" fill="#0b1225" d="M 682.5,215.5 C 677.92,213.784 673.754,214.45 670,217.5C 668.599,225.415 668.099,233.415 668.5,241.5C 667.542,241.047 666.708,240.381 666,239.5C 664.709,231.491 665.709,223.824 669,216.5C 673.39,213.08 677.89,212.747 682.5,215.5 Z"/></g>
<g><path style="opacity:1" fill="#0c0c12" d="M 699.5,169.5 C 722.575,176.206 743.909,186.373 763.5,200C 774.781,213.407 784.948,227.574 794,242.5C 801.151,258.111 808.151,273.778 815,289.5C 820.322,305.756 823.822,322.423 825.5,339.5C 825.344,343.764 826.011,347.764 827.5,351.5C 829.208,407.372 812.708,457.039 778,500.5C 769.221,509.279 760.387,518.113 751.5,527C 734.482,538.643 715.816,546.643 695.5,551C 690.085,551.215 684.752,551.715 679.5,552.5C 678.167,552.5 676.833,552.5 675.5,552.5C 675.198,555.059 675.532,557.393 676.5,559.5C 682.613,559.743 688.613,560.577 694.5,562C 699.668,563.66 702.335,567.16 702.5,572.5C 710.833,572.5 719.167,572.5 727.5,572.5C 727.5,573.5 727.5,574.5 727.5,575.5C 721.167,575.5 714.833,575.5 708.5,575.5C 706.265,575.205 704.265,575.539 702.5,576.5C 701.898,579.142 700.564,581.475 698.5,583.5C 704.472,584.33 710.472,584.83 716.5,585C 716.957,585.414 717.291,585.914 717.5,586.5C 703.957,587.068 690.457,588.068 677,589.5C 674.102,589.363 671.269,588.863 668.5,588C 665.347,586.171 662.514,584.005 660,581.5C 644.937,591.149 629.437,591.982 613.5,584C 610.156,582.106 608.822,579.273 609.5,575.5C 604.125,575.828 598.792,575.495 593.5,574.5C 593.709,573.914 594.043,573.414 594.5,573C 599.533,572.829 604.533,572.329 609.5,571.5C 615.809,562.675 624.476,558.009 635.5,557.5C 635.5,555.167 635.5,552.833 635.5,550.5C 587.25,549.147 550.75,528.147 526,487.5C 517.207,471.588 510.374,454.922 505.5,437.5C 506.693,437.03 507.36,436.03 507.5,434.5C 506.107,428.239 505.441,421.906 505.5,415.5C 511.329,437.768 519.162,459.434 529,480.5C 537.289,493.386 546.789,505.386 557.5,516.5C 558.29,517.794 559.29,518.961 560.5,520C 570.807,525.623 581.14,531.289 591.5,537C 594.876,538.899 598.543,539.732 602.5,539.5C 602.918,540.222 603.584,540.722 604.5,541C 610.367,541.443 616.034,542.276 621.5,543.5C 627.979,544.491 634.646,544.824 641.5,544.5C 641.5,550.167 641.5,555.833 641.5,561.5C 632.633,561.359 625.133,564.359 619,570.5C 617.935,575.086 619.102,578.919 622.5,582C 628.681,582.819 634.681,582.653 640.5,581.5C 654.137,578.527 658.637,570.194 654,556.5C 653.057,552.504 652.224,548.504 651.5,544.5C 654.167,544.5 656.833,544.5 659.5,544.5C 659.978,552.163 660.478,559.83 661,567.5C 663.889,570.527 665.556,574.193 666,578.5C 676.393,587.158 685.726,586.158 694,575.5C 694.139,572.425 693.639,569.425 692.5,566.5C 691.5,566.5 690.5,566.5 689.5,566.5C 683.877,564.748 677.877,563.748 671.5,563.5C 670.833,563.5 670.167,563.5 669.5,563.5C 669.5,562.833 669.5,562.167 669.5,561.5C 669.5,556.833 669.5,552.167 669.5,547.5C 677.573,548.132 685.24,547.465 692.5,545.5C 692.5,545.167 692.5,544.833 692.5,544.5C 708.641,542.212 723.641,536.712 737.5,528C 782.965,495.246 809.631,451.079 817.5,395.5C 818.278,383.855 819.278,372.188 820.5,360.5C 820.764,351.546 819.764,342.879 817.5,334.5C 813.037,308.663 805.871,283.663 796,259.5C 787.624,246.339 779.624,233.006 772,219.5C 765.416,212.152 758.582,205.152 751.5,198.5C 748.059,196.446 744.393,194.946 740.5,194C 739.5,193 738.5,192 737.5,191C 722.76,184.533 707.76,178.866 692.5,174C 689.076,173.253 685.743,173.42 682.5,174.5C 678.167,174.5 673.833,174.5 669.5,174.5C 672.534,172.982 675.867,172.149 679.5,172C 681.668,170.917 683.001,169.75 683.5,168.5C 686.028,169.169 686.028,170.002 683.5,171C 685.667,171.167 687.833,171.333 690,171.5C 694.207,171.463 697.374,170.796 699.5,169.5 Z"/></g>
<g><path style="opacity:1" fill="#1a4b7f" d="M 519.5,287.5 C 517.839,293.99 516.172,300.49 514.5,307C 514.164,308.03 513.497,308.53 512.5,308.5C 513.136,301.549 514.803,294.882 517.5,288.5C 518.167,288.167 518.833,287.833 519.5,287.5 Z"/></g>
<g><path style="opacity:1" fill="#0a1327" d="M 512.5,308.5 C 512.024,312.095 510.858,315.428 509,318.5C 504.632,350.717 503.465,383.05 505.5,415.5C 504.069,415.119 503.236,414.119 503,412.5C 502.333,392.833 502.333,373.167 503,353.5C 503.14,350.957 503.806,348.623 505,346.5C 505.224,337.13 505.891,327.796 507,318.5C 508.557,315.334 509.39,312 509.5,308.5C 510.5,308.5 511.5,308.5 512.5,308.5 Z"/></g>
<g><path style="opacity:1" fill="#0e0d0e" d="M 514.5,280.5 C 515.924,282.485 516.924,285.152 517.5,288.5C 514.803,294.882 513.136,301.549 512.5,308.5C 511.5,308.5 510.5,308.5 509.5,308.5C 509.39,312 508.557,315.334 507,318.5C 505.891,327.796 505.224,337.13 505,346.5C 503.806,348.623 503.14,350.957 503,353.5C 502.333,373.167 502.333,392.833 503,412.5C 503.236,414.119 504.069,415.119 505.5,415.5C 505.441,421.906 506.107,428.239 507.5,434.5C 507.36,436.03 506.693,437.03 505.5,437.5C 501.818,426.768 498.985,415.768 497,404.5C 495.102,376.259 496.768,348.259 502,320.5C 504.804,311.619 507.137,302.619 509,293.5C 510.577,288.898 512.411,284.565 514.5,280.5 Z"/></g>
<g><path style="opacity:1" fill="#bab9b9" d="M 825.5,339.5 C 827.423,343.029 828.089,347.029 827.5,351.5C 826.011,347.764 825.344,343.764 825.5,339.5 Z"/></g>
<g><path style="opacity:1" fill="#21629c" d="M 817.5,334.5 C 819.764,342.879 820.764,351.546 820.5,360.5C 819.278,372.188 818.278,383.855 817.5,395.5C 817.5,375.167 817.5,354.833 817.5,334.5 Z"/></g>
<g><path style="opacity:1" fill="#04060e" d="M 654.5,356.5 C 668.637,354.648 675.304,360.648 674.5,374.5C 670.352,383.033 663.686,385.866 654.5,383C 647.716,377.36 646.216,370.526 650,362.5C 652.127,360.886 653.627,358.886 654.5,356.5 Z"/></g>
<g><path style="opacity:1" fill="#060713" d="M 623.5,370.5 C 627.463,369.56 631.463,369.393 635.5,370C 632.832,370.567 630.166,371.067 627.5,371.5C 627.371,373.216 627.038,374.883 626.5,376.5C 622.584,380.718 620.084,385.718 619,391.5C 618.275,392.059 617.442,392.392 616.5,392.5C 614.502,391.333 613.002,389.666 612,387.5C 612.781,380.585 610.281,375.418 604.5,372C 601.51,371.332 599.51,372.498 598.5,375.5C 599.981,380.454 601.981,385.121 604.5,389.5C 605.259,391.436 606.259,393.269 607.5,395C 606.876,397.085 605.876,398.918 604.5,400.5C 600.459,403.027 596.792,406.194 593.5,410C 590.775,410.803 589.109,409.803 588.5,407C 592.986,403.68 596.986,399.847 600.5,395.5C 596.786,390.701 593.953,385.368 592,379.5C 590.263,364.883 595.763,361.05 608.5,368C 611.693,370.199 614.526,372.699 617,375.5C 619.09,373.557 621.257,371.89 623.5,370.5 Z"/></g>
<g><path style="opacity:1" fill="#0b1023" d="M 640.5,370.5 C 638.876,370.36 637.71,371.027 637,372.5C 636.132,375.485 635.799,378.485 636,381.5C 636.654,380.304 637.154,380.304 637.5,381.5C 634.729,385.39 631.729,389.057 628.5,392.5C 627.548,394.045 627.215,395.712 627.5,397.5C 629.5,396.833 631.5,396.167 633.5,395.5C 631.771,397.727 629.438,398.727 626.5,398.5C 626.261,391.642 628.761,385.976 634,381.5C 634.498,378.518 634.665,375.518 634.5,372.5C 632.801,372.34 631.134,372.506 629.5,373C 628.837,374.518 627.837,375.685 626.5,376.5C 627.038,374.883 627.371,373.216 627.5,371.5C 630.166,371.067 632.832,370.567 635.5,370C 631.463,369.393 627.463,369.56 623.5,370.5C 625.072,367.366 627.738,365.7 631.5,365.5C 634.961,366.396 637.961,368.062 640.5,370.5 Z"/></g>
<g><path style="opacity:1" fill="#080e22" d="M 640.5,370.5 C 641.777,371.694 642.444,373.36 642.5,375.5C 641.864,379.54 641.364,383.54 641,387.5C 642.584,388.861 644.418,389.528 646.5,389.5C 646.833,392.167 647.167,394.833 647.5,397.5C 646.732,396.737 646.232,395.737 646,394.5C 645.667,394.833 645.333,395.167 645,395.5C 644.506,393.866 644.34,392.199 644.5,390.5C 642.5,390.5 640.5,390.5 638.5,390.5C 639.403,383.862 640.07,377.196 640.5,370.5 Z"/></g>
<g><path style="opacity:1" fill="#0b2851" d="M 604.5,389.5 C 608.169,391.438 609.336,394.438 608,398.5C 607.184,399.823 606.017,400.489 604.5,400.5C 605.876,398.918 606.876,397.085 607.5,395C 606.259,393.269 605.259,391.436 604.5,389.5 Z"/></g>
<g><path style="opacity:1" fill="#205990" d="M 779.5,387.5 C 780.748,388.334 781.415,389.667 781.5,391.5C 780.001,395.993 779.001,400.659 778.5,405.5C 780.973,405.088 782.306,406.088 782.5,408.5C 780.167,407.833 777.833,407.167 775.5,406.5C 777.13,400.236 778.464,393.902 779.5,387.5 Z"/></g>
<g><path style="opacity:1" fill="#080915" d="M 640.5,370.5 C 640.07,377.196 639.403,383.862 638.5,390.5C 640.5,390.5 642.5,390.5 644.5,390.5C 644.34,392.199 644.506,393.866 645,395.5C 645.333,395.167 645.667,394.833 646,394.5C 646.232,395.737 646.732,396.737 647.5,397.5C 651.511,402.828 651.344,408.161 647,413.5C 644.54,414.958 642.373,416.791 640.5,419C 634.806,419.384 629.14,419.384 623.5,419C 620.032,423.554 615.366,426.054 609.5,426.5C 606.686,426.019 605.352,424.352 605.5,421.5C 608.231,420.973 610.898,420.14 613.5,419C 617.368,416.121 621.201,413.287 625,410.5C 632.741,415.536 638.908,414.036 643.5,406C 641.189,406.155 638.856,406.155 636.5,406C 635.643,405.311 634.977,404.478 634.5,403.5C 635.815,401.684 637.315,400.017 639,398.5C 639.494,396.866 639.66,395.199 639.5,393.5C 637.142,393.253 635.142,393.919 633.5,395.5C 631.5,396.167 629.5,396.833 627.5,397.5C 627.215,395.712 627.548,394.045 628.5,392.5C 631.729,389.057 634.729,385.39 637.5,381.5C 637.154,380.304 636.654,380.304 636,381.5C 635.799,378.485 636.132,375.485 637,372.5C 637.71,371.027 638.876,370.36 640.5,370.5 Z"/></g>
<g><path style="opacity:1" fill="#060815" d="M 779.5,387.5 C 778.464,393.902 777.13,400.236 775.5,406.5C 777.833,407.167 780.167,407.833 782.5,408.5C 783.207,410.134 784.373,411.468 786,412.5C 787.53,421.095 785.363,428.428 779.5,434.5C 776.553,435.321 773.553,435.821 770.5,436C 764.574,440.656 758.74,440.489 753,435.5C 748.542,436.579 744.042,436.746 739.5,436C 734.079,431.972 733.079,426.972 736.5,421C 733.689,418.855 731.189,416.355 729,413.5C 726.78,405.718 729.613,400.884 737.5,399C 741.537,398.393 745.537,398.56 749.5,399.5C 749.415,396.253 750.415,393.419 752.5,391C 754.674,390.123 756.341,390.623 757.5,392.5C 756.947,397.482 756.613,402.482 756.5,407.5C 753.859,408.263 751.192,408.43 748.5,408C 744.94,403.683 741.273,403.516 737.5,407.5C 736.355,408.776 736.355,410.109 737.5,411.5C 740.317,415.008 743.983,416.341 748.5,415.5C 746.696,420.05 744.696,424.55 742.5,429C 742.645,429.772 742.978,430.439 743.5,431C 745.441,431.743 747.274,431.576 749,430.5C 750.391,426.565 752.224,422.898 754.5,419.5C 757.233,419.196 758.899,420.363 759.5,423C 758.881,425.532 757.881,427.865 756.5,430C 757.719,433.345 759.886,434.179 763,432.5C 764.284,429.47 765.451,426.47 766.5,423.5C 767.833,423.5 769.167,423.5 770.5,423.5C 770.64,428.747 772.806,429.747 777,426.5C 783.493,414.163 779.66,408.829 765.5,410.5C 765.421,407.729 765.921,405.063 767,402.5C 770.108,397.283 772.941,391.949 775.5,386.5C 777.099,386.232 778.432,386.566 779.5,387.5 Z"/></g>
<g><path style="opacity:1" fill="#1c62a2" d="M 757.5,392.5 C 758.795,397.724 758.628,403.057 757,408.5C 754.933,411.07 752.433,413.07 749.5,414.5C 750.794,416.629 752.46,418.296 754.5,419.5C 752.224,422.898 750.391,426.565 749,430.5C 747.274,431.576 745.441,431.743 743.5,431C 742.978,430.439 742.645,429.772 742.5,429C 744.696,424.55 746.696,420.05 748.5,415.5C 743.983,416.341 740.317,415.008 737.5,411.5C 736.355,410.109 736.355,408.776 737.5,407.5C 741.273,403.516 744.94,403.683 748.5,408C 751.192,408.43 753.859,408.263 756.5,407.5C 756.613,402.482 756.947,397.482 757.5,392.5 Z"/></g>
<g><path style="opacity:1" fill="#1b629f" d="M 557.5,516.5 C 564.695,520.264 572.028,523.764 579.5,527C 579.167,527.333 578.833,527.667 578.5,528C 580.769,528.758 582.936,528.591 585,527.5C 585.49,528.793 585.657,530.127 585.5,531.5C 588.609,532.708 591.609,534.208 594.5,536C 597.146,536.497 599.813,536.664 602.5,536.5C 602.5,537.5 602.5,538.5 602.5,539.5C 598.543,539.732 594.876,538.899 591.5,537C 581.14,531.289 570.807,525.623 560.5,520C 559.29,518.961 558.29,517.794 557.5,516.5 Z"/></g>
<g><path style="opacity:1" fill="#081635" d="M 692.5,545.5 C 685.24,547.465 677.573,548.132 669.5,547.5C 669.5,552.167 669.5,556.833 669.5,561.5C 669.167,561.5 668.833,561.5 668.5,561.5C 668.5,556.167 668.5,550.833 668.5,545.5C 676.493,546.723 684.493,546.723 692.5,545.5 Z"/></g>
<g><path style="opacity:1" fill="#031536" d="M 621.5,543.5 C 628.687,543.175 635.687,543.509 642.5,544.5C 642.822,550.358 642.489,556.025 641.5,561.5C 641.5,555.833 641.5,550.167 641.5,544.5C 634.646,544.824 627.979,544.491 621.5,543.5 Z"/></g>
<g><path style="opacity:1" fill="#1c65a2" d="M 642.5,544.5 C 645.5,544.5 648.5,544.5 651.5,544.5C 652.224,548.504 653.057,552.504 654,556.5C 658.637,570.194 654.137,578.527 640.5,581.5C 634.681,582.653 628.681,582.819 622.5,582C 619.102,578.919 617.935,575.086 619,570.5C 625.133,564.359 632.633,561.359 641.5,561.5C 642.489,556.025 642.822,550.358 642.5,544.5 Z"/></g>
<g><path style="opacity:1" fill="#989898" d="M 679.5,552.5 C 678.791,553.404 677.791,553.737 676.5,553.5C 676.5,555.5 676.5,557.5 676.5,559.5C 676.5,557.5 676.5,555.5 676.5,553.5C 677.791,553.737 678.791,553.404 679.5,552.5 Z"/></g>
<g><path style="opacity:1" fill="#071b3a" d="M 671.5,563.5 C 677.877,563.748 683.877,564.748 689.5,566.5C 684.821,566.666 680.155,566.499 675.5,566C 673.68,565.8 672.347,564.966 671.5,563.5 Z"/></g>
<g><path style="opacity:1" fill="#036bb9" d="M 640.5,581.5 C 635.5,581.5 630.5,581.5 625.5,581.5C 625.5,580.5 625.5,579.5 625.5,578.5C 630.487,579.059 635.153,578.225 639.5,576C 638.975,575.308 638.308,574.808 637.5,574.5C 632.24,575.944 626.907,577.277 621.5,578.5C 620.602,573.528 622.102,569.528 626,566.5C 632.917,565.298 639.751,563.798 646.5,562C 645.248,559.959 644.581,557.625 644.5,555C 644.833,552.833 645.167,550.667 645.5,548.5C 646.736,547.754 648.07,547.421 649.5,547.5C 651.046,555.762 651.546,564.096 651,572.5C 649.855,575.477 647.688,577.144 644.5,577.5C 642.812,578.521 641.479,579.855 640.5,581.5 Z"/></g>
<g><path style="opacity:1" fill="#181818" d="M 765.5,569.5 C 767.527,569.338 769.527,569.505 771.5,570C 771.957,570.414 772.291,570.914 772.5,571.5C 764.555,572.895 756.555,573.895 748.5,574.5C 744.942,574.864 741.942,573.864 739.5,571.5C 746.043,571.531 752.71,571.364 759.5,571C 761.708,570.809 763.708,570.309 765.5,569.5 Z"/></g>
<g><path style="opacity:1" fill="#046ab7" d="M 668.5,561.5 C 668.833,561.5 669.167,561.5 669.5,561.5C 669.5,562.167 669.5,562.833 669.5,563.5C 670.292,565.257 671.625,566.591 673.5,567.5C 679.187,568.208 684.854,568.875 690.5,569.5C 692.167,573.833 690.833,575.167 686.5,573.5C 687.025,572.808 687.692,572.308 688.5,572C 686.527,571.505 684.527,571.338 682.5,571.5C 683.907,574.969 683.574,578.303 681.5,581.5C 680.393,582.022 679.226,582.355 678,582.5C 673.602,581.809 669.935,579.809 667,576.5C 666.667,574.5 666.333,572.5 666,570.5C 664.437,569.275 663.27,567.775 662.5,566C 664.907,565.152 666.907,563.652 668.5,561.5 Z"/></g>
<g><path style="opacity:1" fill="#1968a9" d="M 692.5,544.5 C 692.5,544.833 692.5,545.167 692.5,545.5C 684.493,546.723 676.493,546.723 668.5,545.5C 668.5,550.833 668.5,556.167 668.5,561.5C 666.907,563.652 664.907,565.152 662.5,566C 663.27,567.775 664.437,569.275 666,570.5C 666.333,572.5 666.667,574.5 667,576.5C 669.935,579.809 673.602,581.809 678,582.5C 679.226,582.355 680.393,582.022 681.5,581.5C 683.574,578.303 683.907,574.969 682.5,571.5C 684.527,571.338 686.527,571.505 688.5,572C 687.692,572.308 687.025,572.808 686.5,573.5C 690.833,575.167 692.167,573.833 690.5,569.5C 684.854,568.875 679.187,568.208 673.5,567.5C 671.625,566.591 670.292,565.257 669.5,563.5C 670.167,563.5 670.833,563.5 671.5,563.5C 672.347,564.966 673.68,565.8 675.5,566C 680.155,566.499 684.821,566.666 689.5,566.5C 690.5,566.5 691.5,566.5 692.5,566.5C 693.639,569.425 694.139,572.425 694,575.5C 685.726,586.158 676.393,587.158 666,578.5C 665.556,574.193 663.889,570.527 661,567.5C 660.478,559.83 659.978,552.163 659.5,544.5C 656.833,544.5 654.167,544.5 651.5,544.5C 651.5,543.5 651.5,542.5 651.5,541.5C 654.879,541.678 658.045,541.678 661,541.5C 661.333,547.167 661.667,552.833 662,558.5C 662.915,559.328 663.581,560.328 664,561.5C 664.317,559.699 664.984,559.366 666,560.5C 666.5,558 667,555.5 667.5,553C 666.331,548.821 666.331,544.654 667.5,540.5C 668.5,540.833 669.167,541.5 669.5,542.5C 677.05,544.258 684.716,544.925 692.5,544.5 Z"/></g>
<g><path style="opacity:1" fill="#1b1b1b" d="M 559.5,572.5 C 568.167,572.5 576.833,572.5 585.5,572.5C 585.5,573.5 585.5,574.5 585.5,575.5C 576.833,575.5 568.167,575.5 559.5,575.5C 559.5,574.5 559.5,573.5 559.5,572.5 Z"/></g>
<g><path style="opacity:1" fill="#b5b5b5" d="M 702.5,576.5 C 704.265,575.539 706.265,575.205 708.5,575.5C 717.167,576.167 725.833,576.833 734.5,577.5C 725.833,577.5 717.167,577.5 708.5,577.5C 708.5,578.5 708.5,579.5 708.5,580.5C 707.566,579.432 707.232,578.099 707.5,576.5C 705.833,576.5 704.167,576.5 702.5,576.5 Z"/></g>
<g><path style="opacity:1" fill="#151515" d="M 734.5,577.5 C 736.745,577.541 737.412,578.375 736.5,580C 727.173,580.5 717.839,580.666 708.5,580.5C 708.5,579.5 708.5,578.5 708.5,577.5C 717.167,577.5 725.833,577.5 734.5,577.5 Z"/></g>
<g><path style="opacity:1" fill="#080808" d="M 546.5,580.5 C 559.673,579.175 573.006,579.175 586.5,580.5C 586.376,581.107 586.043,581.44 585.5,581.5C 572.421,581.814 559.421,581.48 546.5,580.5 Z"/></g>
<g><path style="opacity:1" fill="#8a8a8a" d="M 546.5,580.5 C 559.421,581.48 572.421,581.814 585.5,581.5C 579.175,582.166 572.675,582.5 566,582.5C 559.131,582.497 552.631,581.83 546.5,580.5 Z"/></g>
<g><path style="opacity:1" fill="#1c1c1c" d="M 743.5,580.5 C 749.167,580.5 754.833,580.5 760.5,580.5C 760.5,581.5 760.5,582.5 760.5,583.5C 755.156,583.666 749.823,583.499 744.5,583C 743.748,582.329 743.414,581.496 743.5,580.5 Z"/></g>
<g><path style="opacity:1" fill="#212121" d="M 592.5,584.5 C 596.514,584.334 600.514,584.501 604.5,585C 605.973,585.71 606.64,586.876 606.5,588.5C 601.821,588.666 597.155,588.499 592.5,588C 591.316,586.855 591.316,585.688 592.5,584.5 Z"/></g>
<g><path style="opacity:1" fill="#232323" d="M 719.5,586.5 C 727.524,586.566 735.524,587.066 743.5,588C 744.833,589 744.833,590 743.5,591C 735.513,590.978 727.513,590.811 719.5,590.5C 719.5,589.167 719.5,587.833 719.5,586.5 Z"/></g>
<g><path style="opacity:1" fill="#121212" d="M 571.5,589.5 C 575.442,589.875 579.109,590.875 582.5,592.5C 582.158,593.338 581.492,593.672 580.5,593.5C 575.146,593.431 569.813,593.098 564.5,592.5C 562.833,592.5 561.167,592.5 559.5,592.5C 559.33,591.178 559.663,590.011 560.5,589C 564.17,588.721 567.837,588.888 571.5,589.5 Z"/></g>
<g><path style="opacity:1" fill="#777777" d="M 571.5,589.5 C 575.5,589.5 579.5,589.5 583.5,589.5C 583.737,590.791 583.404,591.791 582.5,592.5C 579.109,590.875 575.442,589.875 571.5,589.5 Z"/></g>
<g><path style="opacity:1" fill="#1f1f1f" d="M 643.5,589.5 C 650.993,588.619 657.993,589.785 664.5,593C 657.174,593.5 649.841,593.666 642.5,593.5C 642.433,592.041 642.766,590.708 643.5,589.5 Z"/></g>
<g><path style="opacity:1" fill="#919191" d="M 564.5,592.5 C 569.813,593.098 575.146,593.431 580.5,593.5C 575.089,594.857 569.755,594.524 564.5,592.5 Z"/></g>
<g><path style="opacity:1" fill="#161616" d="M 596.5,594.5 C 609.5,594.5 622.5,594.5 635.5,594.5C 635.64,596.124 634.973,597.29 633.5,598C 621.158,598.513 608.825,598.346 596.5,597.5C 596.5,596.5 596.5,595.5 596.5,594.5 Z"/></g>
<g><path style="opacity:1" fill="#141414" d="M 670.5,594.5 C 686.833,594.5 703.167,594.5 719.5,594.5C 719.5,595.833 719.5,597.167 719.5,598.5C 703.163,597.287 686.83,597.287 670.5,598.5C 670.5,597.167 670.5,595.833 670.5,594.5 Z"/></g>
<g><path style="opacity:1" fill="#151515" d="M 646.5,600.5 C 656.188,600.38 665.854,600.713 675.5,601.5C 675.5,602.833 675.5,604.167 675.5,605.5C 665.527,604.634 655.527,604.301 645.5,604.5C 645.433,603.041 645.766,601.708 646.5,600.5 Z"/></g>
<g><path style="opacity:1" fill="#171717" d="M 688.5,601.5 C 706.5,601.5 724.5,601.5 742.5,601.5C 742.5,602.833 742.5,604.167 742.5,605.5C 724.167,605.5 705.833,605.5 687.5,605.5C 687.433,604.041 687.766,602.708 688.5,601.5 Z"/></g>
</svg>
