<?xml version="1.0" encoding="UTF-8"?>
<!DOCTYPE svg PUBLIC "-//W3C//DTD SVG 1.1//EN" "http://www.w3.org/Graphics/SVG/1.1/DTD/svg11.dtd">
<svg xmlns="http://www.w3.org/2000/svg" version="1.1" width="512px" height="512px" style="shape-rendering:geometricPrecision; text-rendering:geometricPrecision; image-rendering:optimizeQuality; fill-rule:evenodd; clip-rule:evenodd" xmlns:xlink="http://www.w3.org/1999/xlink">
<g><path style="opacity:1" fill="#fefefe" d="M -0.5,-0.5 C 170.167,-0.5 340.833,-0.5 511.5,-0.5C 511.5,170.167 511.5,340.833 511.5,511.5C 340.833,511.5 170.167,511.5 -0.5,511.5C -0.5,340.833 -0.5,170.167 -0.5,-0.5 Z"/></g>
<g><path style="opacity:1" fill="#0c0c11" d="M 317.5,446.5 C 315.492,448.083 313.159,449.083 310.5,449.5C 307.833,449.5 305.167,449.5 302.5,449.5C 299.615,449.194 296.948,449.527 294.5,450.5C 293.101,452.942 291.434,455.276 289.5,457.5C 295.988,458.167 302.321,458.833 308.5,459.5C 308.5,459.833 308.5,460.167 308.5,460.5C 298.902,460.553 289.236,460.72 279.5,461C 273.626,463.764 267.626,464.098 261.5,462C 258.615,459.606 255.615,457.439 252.5,455.5C 239.896,462.976 226.563,464.476 212.5,460C 207.473,458.147 204.473,454.647 203.5,449.5C 198.125,449.828 192.792,449.495 187.5,448.5C 187.709,447.914 188.043,447.414 188.5,447C 193.533,446.829 198.533,446.329 203.5,445.5C 209.713,437.181 218.046,432.514 228.5,431.5C 228.5,429.5 228.5,427.5 228.5,425.5C 190.256,424.166 158.756,409.166 134,380.5C 97.989,328.456 85.989,271.123 98,208.5C 106.733,162.364 127.066,122.364 159,88.5C 173.269,75.6172 189.102,65.1172 206.5,57C 211.406,55.3481 216.406,54.0148 221.5,53C 219.308,51.6413 217.641,49.8079 216.5,47.5C 217.145,46.354 217.978,45.354 219,44.5C 222.797,46.6478 226.63,48.6478 230.5,50.5C 231.369,31.79 241.035,23.29 259.5,25C 264.415,25.8516 268.582,28.0182 272,31.5C 273.836,37.672 274.836,44.0053 275,50.5C 279.133,47.3689 282.966,43.8689 286.5,40C 289.548,39.3655 291.215,40.6988 291.5,44C 290.108,47.2925 288.108,50.1259 285.5,52.5C 294.043,55.6252 302.709,58.4585 311.5,61C 320.258,65.7047 329.258,70.038 338.5,74C 345.638,78.3245 352.138,83.4911 358,89.5C 377.681,114.189 392.681,141.522 403,171.5C 424.789,239.343 416.455,303.009 378,362.5C 364.101,380.734 347.934,396.567 329.5,410C 322.448,412.572 315.781,415.906 309.5,420C 302.761,421.351 296.095,423.018 289.5,425C 282.398,425.173 275.398,426.006 268.5,427.5C 268.5,429.833 268.5,432.167 268.5,434.5C 277.992,432.654 286.159,434.987 293,441.5C 293.49,442.793 293.657,444.127 293.5,445.5C 301.684,445.174 309.684,445.508 317.5,446.5 Z"/></g>
<g><path style="opacity:1" fill="#c23e37" d="M 251.5,31.5 C 247.445,34.8885 243.778,38.5552 240.5,42.5C 241.167,35.8333 244.833,32.1667 251.5,31.5 Z"/></g>
<g><path style="opacity:1" fill="#ef322c" d="M 251.5,31.5 C 254.167,31.5 256.833,31.5 259.5,31.5C 261.455,34.3183 263.288,37.3183 265,40.5C 265.499,44.8206 265.666,49.1539 265.5,53.5C 264.5,53.5 263.5,53.5 262.5,53.5C 255.167,53.5 247.833,53.5 240.5,53.5C 240.167,53.5 239.833,53.5 239.5,53.5C 239.323,49.7657 239.656,46.0991 240.5,42.5C 243.778,38.5552 247.445,34.8885 251.5,31.5 Z"/></g>
<g><path style="opacity:1" fill="#9f3433" d="M 259.5,31.5 C 262.168,33.3355 264.334,35.6688 266,38.5C 266.816,43.6842 266.65,48.6842 265.5,53.5C 265.666,49.1539 265.499,44.8206 265,40.5C 263.288,37.3183 261.455,34.3183 259.5,31.5 Z"/></g>
<g><path style="opacity:1" fill="#b53e3a" d="M 240.5,42.5 C 239.656,46.0991 239.323,49.7657 239.5,53.5C 238.275,52.8478 237.608,51.6811 237.5,50C 237.694,48.1404 238.028,46.3071 238.5,44.5C 238.747,43.2867 239.414,42.62 240.5,42.5 Z"/></g>
<g><path style="opacity:1" fill="#802527" d="M 240.5,53.5 C 247.833,53.5 255.167,53.5 262.5,53.5C 262.082,54.2216 261.416,54.7216 260.5,55C 257.167,55.1667 253.833,55.3333 250.5,55.5C 246.761,55.4864 243.428,54.8197 240.5,53.5 Z"/></g>
<g><path style="opacity:1" fill="#0d2140" d="M 224.5,60.5 C 240.992,59.5035 257.658,59.1702 274.5,59.5C 268.356,60.5431 262.022,61.2098 255.5,61.5C 245.182,60.6951 234.848,60.3617 224.5,60.5 Z"/></g>
<g><path style="opacity:1" fill="#026bb6" d="M 397.5,181.5 C 397.38,183.199 397.046,184.865 396.5,186.5C 399.884,195.16 401.717,204.16 402,213.5C 403.011,214.337 404.178,214.67 405.5,214.5C 405.605,223.34 405.938,232.173 406.5,241C 405.62,254.159 404.953,267.326 404.5,280.5C 402.314,287.595 400.814,294.929 400,302.5C 397.975,308.959 395.808,315.293 393.5,321.5C 391.164,326.835 388.83,332.168 386.5,337.5C 370.547,365.955 348.88,389.122 321.5,407C 309.831,413.166 297.498,417.333 284.5,419.5C 276.5,419.5 268.5,419.5 260.5,419.5C 260.334,425.176 260.501,430.843 261,436.5C 261.383,437.056 261.883,437.389 262.5,437.5C 268.605,438.987 274.938,439.987 281.5,440.5C 285.171,443.283 286.338,446.95 285,451.5C 277.904,457.769 270.07,458.936 261.5,455C 259.235,453.242 257.568,451.075 256.5,448.5C 256.97,445.654 256.137,443.321 254,441.5C 253.687,434.132 253.02,426.799 252,419.5C 249.712,419.263 247.212,419.263 244.5,419.5C 244.808,423.36 245.475,427.026 246.5,430.5C 246.666,436.509 246.499,442.509 246,448.5C 237.567,456.036 227.734,458.536 216.5,456C 209.999,447.855 211.666,442.022 221.5,438.5C 226.316,437.296 231.149,436.296 236,435.5C 236.499,429.843 236.666,424.176 236.5,418.5C 230.5,418.5 224.5,418.5 218.5,418.5C 194.818,416.33 173.484,408.164 154.5,394C 132.334,371.132 116.834,344.299 108,313.5C 102.574,297.175 100.407,280.342 101.5,263C 101.775,241.75 103.275,220.583 106,199.5C 107.185,197.623 108.185,195.623 109,193.5C 110.873,179.2 115.873,166.2 124,154.5C 130.251,136.795 139.418,120.795 151.5,106.5C 157.624,100.387 163.624,94.2206 169.5,88C 182.968,76.55 197.968,67.55 214.5,61C 217.817,60.5017 221.15,60.335 224.5,60.5C 234.848,60.3617 245.182,60.6951 255.5,61.5C 262.022,61.2098 268.356,60.5431 274.5,59.5C 278.078,58.4113 281.745,58.2446 285.5,59C 298.532,63.7501 311.532,68.7501 324.5,74C 330.317,77.7122 336.317,81.0455 342.5,84C 356.705,96.5912 367.872,111.425 376,128.5C 377.333,129.833 378.667,131.167 380,132.5C 383.557,141.715 387.557,150.715 392,159.5C 394.447,166.62 396.28,173.953 397.5,181.5 Z"/></g>
<g><path style="opacity:1" fill="#030307" d="M 280.5,102.5 C 281.496,102.414 282.329,102.748 283,103.5C 285,109.833 285,116.167 283,122.5C 280.547,125.784 277.381,128.117 273.5,129.5C 269.974,127.419 266.141,125.753 262,124.5C 260.532,118.77 260.032,113.104 260.5,107.5C 262.831,104.26 265.664,101.593 269,99.5C 272.828,100.582 276.661,101.582 280.5,102.5 Z"/></g>
<g><path style="opacity:1" fill="#08091b" d="M 280.5,102.5 C 276.661,101.582 272.828,100.582 269,99.5C 265.664,101.593 262.831,104.26 260.5,107.5C 260.032,113.104 260.532,118.77 262,124.5C 266.141,125.753 269.974,127.419 273.5,129.5C 267.534,130.097 262.701,128.097 259,123.5C 258.333,117.167 258.333,110.833 259,104.5C 263.109,97.6873 268.943,95.8539 276.5,99C 278.324,99.66 279.657,100.827 280.5,102.5 Z"/></g>
<g><path style="opacity:1" fill="#1e639d" d="M 229.5,127.5 C 226.762,126.189 224.595,124.189 223,121.5C 222.333,118.167 222.333,114.833 223,111.5C 224.725,106.194 226.892,101.194 229.5,96.5C 233.683,95.6863 237.683,94.353 241.5,92.5C 246.363,95.5795 249.53,99.9128 251,105.5C 251.683,112.861 251.517,120.195 250.5,127.5C 249.5,127.5 248.5,127.5 247.5,127.5C 246.316,130.862 244.149,133.529 241,135.5C 237.725,133.564 234.225,131.897 230.5,130.5C 229.614,129.675 229.281,128.675 229.5,127.5 Z"/></g>
<g><path style="opacity:1" fill="#04050c" d="M 229.5,127.5 C 222.831,116.978 223.831,107.144 232.5,98C 236.406,96.566 240.406,96.2327 244.5,97C 251.699,106.698 252.366,116.864 246.5,127.5C 240.869,131.425 235.202,131.425 229.5,127.5 Z"/></g>
<g><path style="opacity:1" fill="#1d609a" d="M 397.5,181.5 C 407.945,211.236 411.112,241.903 407,273.5C 406.61,276.104 405.776,278.438 404.5,280.5C 404.953,267.326 405.62,254.159 406.5,241C 405.938,232.173 405.605,223.34 405.5,214.5C 404.178,214.67 403.011,214.337 402,213.5C 401.717,204.16 399.884,195.16 396.5,186.5C 397.046,184.865 397.38,183.199 397.5,181.5 Z"/></g>
<g><path style="opacity:1" fill="#04050c" d="M 261.5,260.5 C 257.7,262.143 253.7,262.81 249.5,262.5C 247.321,262.16 245.488,261.16 244,259.5C 238.506,250.947 239.673,243.447 247.5,237C 260.531,235.042 267.031,240.542 267,253.5C 265.303,256.02 263.47,258.353 261.5,260.5 Z"/></g>
<g><path style="opacity:1" fill="#070915" d="M 189.5,244.5 C 194.155,244.117 198.488,245.117 202.5,247.5C 205.505,250.006 208.339,252.673 211,255.5C 214.213,251.951 217.713,248.784 221.5,246C 228.891,245.016 233.558,248.016 235.5,255C 234.896,258.886 234.396,262.719 234,266.5C 238.883,268.411 241.216,272.078 241,277.5C 243.368,279.684 244.035,282.351 243,285.5C 238.95,296.692 231.283,300.358 220,296.5C 217.511,298.319 215.011,300.152 212.5,302C 209.615,302.695 206.782,303.528 204,304.5C 200.918,304.252 199.418,302.585 199.5,299.5C 206.21,298.645 211.543,295.479 215.5,290C 217.473,289.505 219.473,289.338 221.5,289.5C 221.5,290.5 221.5,291.5 221.5,292.5C 224.187,292.664 226.854,292.497 229.5,292C 231.667,290.167 233.833,288.333 236,286.5C 236.749,285.365 236.583,284.365 235.5,283.5C 233.878,285.439 232.044,285.772 230,284.5C 230.957,280.63 231.79,276.63 232.5,272.5C 231.127,272.343 229.793,272.51 228.5,273C 226.957,274.714 225.29,276.214 223.5,277.5C 221.603,277.272 220.27,276.272 219.5,274.5C 221.237,269.356 223.737,264.689 227,260.5C 227.498,257.518 227.665,254.518 227.5,251.5C 224.988,251.423 222.988,252.423 221.5,254.5C 217.344,259.146 214.511,264.479 213,270.5C 212.275,271.059 211.442,271.392 210.5,271.5C 208.502,270.333 207.002,268.666 206,266.5C 206.083,260.51 203.916,255.677 199.5,252C 195,251.167 193.167,253 194,257.5C 195.802,263.429 198.636,268.762 202.5,273.5C 199.863,279.47 195.53,283.804 189.5,286.5C 188.614,287.325 188.281,288.325 188.5,289.5C 184.677,289.833 183.177,288.166 184,284.5C 186.383,281.727 189.217,279.561 192.5,278C 193.43,276.806 194.097,275.473 194.5,274C 186.32,265.146 184.653,255.312 189.5,244.5 Z"/></g>
<g><path style="opacity:1" fill="#11335d" d="M 261.5,260.5 C 261.423,261.75 260.756,262.583 259.5,263C 255.973,263.808 252.64,263.641 249.5,262.5C 253.7,262.81 257.7,262.143 261.5,260.5 Z"/></g>
<g><path style="opacity:1" fill="#090b18" d="M 365.5,265.5 C 368.488,265.155 369.821,266.488 369.5,269.5C 368.222,273.963 366.889,278.463 365.5,283C 368.191,286.096 371.358,288.596 375,290.5C 376.309,298.034 374.642,304.7 370,310.5C 369.517,311.448 369.351,312.448 369.5,313.5C 366.15,313.335 362.817,313.502 359.5,314C 357.319,315.84 354.819,317.007 352,317.5C 348.406,317.029 345.239,315.696 342.5,313.5C 329.12,317.441 323.787,312.774 326.5,299.5C 324.851,297.35 323.018,295.35 321,293.5C 319.787,290.232 319.454,286.899 320,283.5C 325.188,277.897 331.688,275.897 339.5,277.5C 339.191,271.628 341.691,269.295 347,270.5C 347.361,275.77 346.861,280.937 345.5,286C 344.271,286.781 342.938,287.281 341.5,287.5C 339.049,285.71 336.382,284.377 333.5,283.5C 327.044,284.739 326.044,287.739 330.5,292.5C 333.897,293.172 337.23,294.005 340.5,295C 335.604,298.693 333.271,303.527 333.5,309.5C 335.199,309.66 336.866,309.494 338.5,309C 340.238,306.358 341.571,303.525 342.5,300.5C 345.215,297.754 347.548,297.921 349.5,301C 347.813,302.853 346.813,305.019 346.5,307.5C 347.174,311.168 349.174,312.168 352.5,310.5C 352.958,306.566 354.791,303.566 358,301.5C 359.059,301.63 359.892,302.13 360.5,303C 359.167,304 359.167,305 360.5,306C 362.441,306.743 364.274,306.576 366,305.5C 373.208,293.076 369.708,287.576 355.5,289C 354.978,288.439 354.645,287.772 354.5,287C 357.506,279.47 361.173,272.303 365.5,265.5 Z"/></g>
<g><path style="opacity:1" fill="#091129" d="M 393.5,321.5 C 393.664,324.187 393.497,326.854 393,329.5C 391.387,332.611 389.22,335.277 386.5,337.5C 388.83,332.168 391.164,326.835 393.5,321.5 Z"/></g>
<g><path style="opacity:1" fill="#215080" d="M 284.5,419.5 C 277.056,421.058 269.389,421.724 261.5,421.5C 261.267,426.895 261.6,432.228 262.5,437.5C 261.883,437.389 261.383,437.056 261,436.5C 260.501,430.843 260.334,425.176 260.5,419.5C 268.5,419.5 276.5,419.5 284.5,419.5 Z"/></g>
<g><path style="opacity:1" fill="#071937" d="M 256.5,448.5 C 255.916,446.257 254.75,444.257 253,442.5C 252.279,435.177 251.779,427.844 251.5,420.5C 249.833,420.5 248.167,420.5 246.5,420.5C 246.5,423.833 246.5,427.167 246.5,430.5C 245.475,427.026 244.808,423.36 244.5,419.5C 247.212,419.263 249.712,419.263 252,419.5C 253.02,426.799 253.687,434.132 254,441.5C 256.137,443.321 256.97,445.654 256.5,448.5 Z"/></g>
<g><path style="opacity:1" fill="#071836" d="M 218.5,418.5 C 224.5,418.5 230.5,418.5 236.5,418.5C 236.666,424.176 236.499,429.843 236,435.5C 231.149,436.296 226.316,437.296 221.5,438.5C 221.804,437.85 222.137,437.183 222.5,436.5C 226.445,435.509 230.445,435.176 234.5,435.5C 234.5,430.167 234.5,424.833 234.5,419.5C 228.974,419.821 223.64,419.488 218.5,418.5 Z"/></g>
<g><path style="opacity:1" fill="#2c2c2c" d="M 355.5,443.5 C 357.5,443.5 359.5,443.5 361.5,443.5C 361.5,444.5 361.5,445.5 361.5,446.5C 351.844,447.481 342.177,447.981 332.5,448C 331.09,447.632 330.09,446.799 329.5,445.5C 338.324,444.833 346.991,444.167 355.5,443.5 Z"/></g>
<g><path style="opacity:1" fill="#222222" d="M 156.5,445.5 C 163.841,445.334 171.174,445.5 178.5,446C 179.973,446.71 180.64,447.876 180.5,449.5C 172.167,449.5 163.833,449.5 155.5,449.5C 155.433,448.041 155.766,446.708 156.5,445.5 Z"/></g>
<g><path style="opacity:1" fill="#6d6d6d" d="M 317.5,446.5 C 318.404,447.209 318.737,448.209 318.5,449.5C 315.833,449.5 313.167,449.5 310.5,449.5C 313.159,449.083 315.492,448.083 317.5,446.5 Z"/></g>
<g><path style="opacity:1" fill="#b1b1b1" d="M 294.5,450.5 C 296.948,449.527 299.615,449.194 302.5,449.5C 310.167,450.167 317.833,450.833 325.5,451.5C 316.435,450.864 307.769,451.53 299.5,453.5C 298.596,452.791 298.263,451.791 298.5,450.5C 297.167,450.5 295.833,450.5 294.5,450.5 Z"/></g>
<g><path style="opacity:1" fill="#141414" d="M 325.5,451.5 C 327.549,451.706 327.883,452.539 326.5,454C 317.324,454.824 308.324,454.657 299.5,453.5C 307.769,451.53 316.435,450.864 325.5,451.5 Z"/></g>
<g><path style="opacity:1" fill="#191919" d="M 142.5,452.5 C 155.171,452.333 167.838,452.5 180.5,453C 180.957,453.414 181.291,453.914 181.5,454.5C 168.846,455.666 156.18,455.833 143.5,455C 142.748,454.329 142.414,453.496 142.5,452.5 Z"/></g>
<g><path style="opacity:1" fill="#232323" d="M 333.5,454.5 C 339.167,454.5 344.833,454.5 350.5,454.5C 350.5,455.5 350.5,456.5 350.5,457.5C 345.156,457.666 339.823,457.499 334.5,457C 333.748,456.329 333.414,455.496 333.5,454.5 Z"/></g>
<g><path style="opacity:1" fill="#1b1b1b" d="M 187.5,457.5 C 191.182,457.335 194.848,457.501 198.5,458C 199.973,458.71 200.64,459.876 200.5,461.5C 195.833,461.5 191.167,461.5 186.5,461.5C 186.433,460.041 186.766,458.708 187.5,457.5 Z"/></g>
<g><path style="opacity:1" fill="#939393" d="M 308.5,460.5 C 308.5,460.167 308.5,459.833 308.5,459.5C 313.695,459.179 318.695,459.513 323.5,460.5C 319.167,460.5 314.833,460.5 310.5,460.5C 310.5,461.5 310.5,462.5 310.5,463.5C 309.833,462.5 309.167,461.5 308.5,460.5 Z"/></g>
<g><path style="opacity:1" fill="#181818" d="M 323.5,460.5 C 327.021,461.166 330.687,461.833 334.5,462.5C 334.291,463.086 333.957,463.586 333.5,464C 325.655,464.822 317.989,464.656 310.5,463.5C 310.5,462.5 310.5,461.5 310.5,460.5C 314.833,460.5 319.167,460.5 323.5,460.5 Z"/></g>
<g><path style="opacity:1" fill="#1d1d1d" d="M 155.5,462.5 C 163.142,463.263 170.809,463.597 178.5,463.5C 178.5,464.5 178.5,465.5 178.5,466.5C 170.79,467.697 163.123,467.364 155.5,465.5C 155.5,464.5 155.5,463.5 155.5,462.5 Z"/></g>
<g><path style="opacity:1" fill="#232323" d="M 236.5,463.5 C 241.511,463.334 246.511,463.501 251.5,464C 253.384,464.216 255.051,464.883 256.5,466C 250.012,467.458 243.345,467.958 236.5,467.5C 236.5,466.167 236.5,464.833 236.5,463.5 Z"/></g>
<g><path style="opacity:1" fill="#222221" d="M 191.5,467.5 C 203.838,467.333 216.171,467.5 228.5,468C 229.815,469.395 229.481,470.395 227.5,471C 215.49,471.54 203.49,471.373 191.5,470.5C 191.5,469.5 191.5,468.5 191.5,467.5 Z"/></g>
<g><path style="opacity:1" fill="#1e1e1e" d="M 263.5,467.5 C 278.837,467.333 294.17,467.5 309.5,468C 310.337,469.011 310.67,470.178 310.5,471.5C 294.828,470.366 279.161,470.366 263.5,471.5C 263.5,470.167 263.5,468.833 263.5,467.5 Z"/></g>
<g><path style="opacity:1" fill="#151515" d="M 239.5,473.5 C 248.879,473.224 258.212,473.724 267.5,475C 268.798,477.395 267.965,478.562 265,478.5C 256.197,477.571 247.364,477.237 238.5,477.5C 238.433,476.041 238.766,474.708 239.5,473.5 Z"/></g>
<g><path style="opacity:1" fill="#181818" d="M 280.5,474.5 C 297.833,474.5 315.167,474.5 332.5,474.5C 332.5,475.833 332.5,477.167 332.5,478.5C 314.821,478.833 297.154,478.5 279.5,477.5C 280.127,476.583 280.461,475.583 280.5,474.5 Z"/></g>
</svg>
